<?xml version="1.0" encoding="utf-8"?>
<!-- Generator: Adobe Illustrator 17.1.0, SVG Export Plug-In . SVG Version: 6.00 Build 0)  -->
<!DOCTYPE svg PUBLIC "-//W3C//DTD SVG 1.1//EN" "http://www.w3.org/Graphics/SVG/1.1/DTD/svg11.dtd">
<svg version="1.1" id="Layer_1" xmlns="http://www.w3.org/2000/svg" xmlns:xlink="http://www.w3.org/1999/xlink" x="0px" y="0px"
   viewBox="315 0 512 512" enable-background="new 315 0 512 512" xml:space="preserve">
<g transform="scale(1.8, 1.8) translate(-245, -130)">
  <g>
    <polygon fill="#303F9F" points="506.7,251.5 487.2,285.3 506.7,319.1 526.2,285.3         "/>
    <polygon fill="#3F51B5" points="623.8,183.9 604.3,217.7 623.8,251.5 643.3,217.7         "/>
    <polygon fill="#FF4080" points="584.8,183.9 506.7,319.1 545.7,319.1 623.8,183.9         "/>
    <polygon fill="#536DFE" points="506.7,183.9 467.7,251.5 487.2,285.3 545.7,183.9         "/>
    <polygon fill-opacity="0.1" points="545.7,251.5 565.2,217.7 584.8,251.5         "/>
    <polygon fill-opacity="0.2" points="545.7,251.5 565.2,285.3 584.8,251.5         "/>
    <polygon fill-opacity="0.3" points="526.2,285.3 545.7,251.5 565.2,285.3         "/>
    <polygon fill-opacity="0.4" points="526.2,285.3 545.7,319.1 565.2,285.3         "/>
    <polygon fill-opacity="0.5" points="506.7,319.1 526.2,285.3 545.7,319.1         "/>
    <polygon fill-opacity="0.1" points="467.7,251.5 487.2,217.7 506.7,251.5         "/>
    <polygon fill-opacity="0.2" points="467.7,251.5 487.2,285.3 506.7,251.5         "/>
    <polygon fill-opacity="0.2" points="526.2,285.3 506.7,319.1 487.2,285.3         "/>
    <polygon fill-opacity="0.2" points="643.3,217.7 623.8,183.9 604.3,217.7         "/>

    <polygon fill="#7986CB" points="643.3,217.7 584.8,319.1 623.8,319.1 662.8,251.5     "/>
    <polygon fill="#FFFFFF" fill-opacity="0.2" points="623.8,251.5 643.3,217.7 662.8,251.5      "/>
    <polygon fill="#FFFFFF" fill-opacity="0.1" points="623.8,251.5 643.3,285.3 662.8,251.5      "/>
    <polygon fill-opacity="0.1" points="604.3,285.3 623.8,319.1 643.3,285.3     "/>
    <polygon fill-opacity="0.2" points="584.8,319.1 604.3,285.3 623.8,319.1     "/>
  </g>
  <!-- connecting ... -->
  <g transform="translate(30, -30)">
    <path fill="#757575" d="M481,388.9c0.6,0,1.2-0.2,1.6-0.5c0.5-0.4,0.7-0.8,0.8-1.4h1.6c0,0.9-0.5,1.7-1.2,2.4
      c-0.8,0.7-1.7,1-2.8,1c-1.5,0-2.6-0.5-3.3-1.4c-0.8-0.9-1.1-2.1-1.1-3.6v-0.4c0-1.4,0.4-2.6,1.1-3.6c0.8-0.9,1.9-1.4,3.3-1.4
      c1.2,0,2.1,0.3,2.8,1c0.7,0.7,1.1,1.6,1.2,2.6h-1.6c0-0.6-0.3-1.2-0.7-1.6c-0.4-0.4-1-0.6-1.7-0.6c-1,0-1.7,0.3-2.1,1
      c-0.4,0.7-0.6,1.5-0.6,2.6v0.4c0,1,0.2,1.9,0.6,2.6C479.3,388.5,480,388.9,481,388.9z"/>
    <path fill="#757575" d="M486.4,385c0-1.5,0.4-2.7,1.2-3.7c0.8-1,1.9-1.4,3.3-1.4c1.4,0,2.5,0.5,3.3,1.4c0.8,0.9,1.2,2.2,1.2,3.7
      v0.2c0,1.5-0.4,2.7-1.2,3.7c-0.8,0.9-1.9,1.4-3.3,1.4s-2.5-0.5-3.3-1.4c-0.8-0.9-1.2-2.2-1.2-3.7V385z M488.2,385.2
      c0,1.1,0.2,2,0.7,2.7c0.5,0.7,1.2,1,2.1,1c0.9,0,1.6-0.3,2.1-1c0.5-0.7,0.7-1.6,0.7-2.7V385c0-1.1-0.2-1.9-0.7-2.6
      c-0.5-0.7-1.2-1.1-2.1-1.1c-0.9,0-1.6,0.4-2.1,1.1c-0.5,0.7-0.7,1.6-0.7,2.6V385.2z"/>
    <path fill="#757575" d="M499.3,380l0.1,1.3c0.4-0.5,0.8-0.8,1.3-1.1c0.5-0.3,1.1-0.4,1.7-0.4c1,0,1.8,0.3,2.4,1
      c0.6,0.6,0.8,1.6,0.8,3v6.3h-1.7v-6.3c0-0.8-0.2-1.5-0.5-1.9c-0.3-0.4-0.8-0.6-1.5-0.6c-0.6,0-1,0.1-1.5,0.4
      c-0.4,0.3-0.8,0.7-1,1.2v7.2h-1.7v-10H499.3z"/>
    <path fill="#757575" d="M509.7,380l0.1,1.3c0.4-0.5,0.8-0.8,1.3-1.1c0.5-0.3,1.1-0.4,1.7-0.4c1,0,1.8,0.3,2.4,1
      c0.6,0.6,0.8,1.6,0.8,3v6.3h-1.7v-6.3c0-0.8-0.2-1.5-0.5-1.9c-0.3-0.4-0.8-0.6-1.5-0.6c-0.6,0-1,0.1-1.5,0.4
      c-0.4,0.3-0.8,0.7-1,1.2v7.2h-1.7v-10H509.7z"/>
    <path fill="#757575" d="M522.9,390.3c-1.4,0-2.5-0.4-3.4-1.3c-0.8-0.9-1.2-2.1-1.2-3.5V385c0-1.6,0.4-2.8,1.3-3.8s1.9-1.4,3.1-1.4
      c1.4,0,2.4,0.4,3.1,1.3c0.7,0.9,1,2.1,1,3.6v0.8H520c0,1,0.3,1.8,0.8,2.4c0.5,0.6,1.2,0.9,2.2,0.9c0.6,0,1.1-0.1,1.5-0.3
      c0.4-0.2,0.8-0.6,1.1-1l1,0.8c-0.4,0.6-0.9,1-1.5,1.4C524.6,390.1,523.8,390.3,522.9,390.3z M522.6,381.3c-0.7,0-1.3,0.2-1.8,0.7
      c-0.5,0.5-0.7,1.2-0.9,2.1h5V384c-0.1-0.8-0.3-1.4-0.6-2C524,381.5,523.5,381.3,522.6,381.3z"/>
    <path fill="#757575" d="M532.8,388.9c0.6,0,1.2-0.2,1.6-0.5c0.5-0.4,0.7-0.8,0.8-1.4h1.6c0,0.9-0.5,1.7-1.2,2.4
      c-0.8,0.7-1.7,1-2.8,1c-1.5,0-2.6-0.5-3.3-1.4c-0.8-0.9-1.1-2.1-1.1-3.6v-0.4c0-1.4,0.4-2.6,1.1-3.6c0.8-0.9,1.9-1.4,3.3-1.4
      c1.2,0,2.1,0.3,2.8,1c0.7,0.7,1.1,1.6,1.2,2.6h-1.6c0-0.6-0.3-1.2-0.7-1.6c-0.4-0.4-1-0.6-1.7-0.6c-1,0-1.7,0.3-2.1,1
      c-0.4,0.7-0.6,1.5-0.6,2.6v0.4c0,1,0.2,1.9,0.6,2.6C531.1,388.5,531.8,388.9,532.8,388.9z"/>
    <path fill="#757575" d="M541.2,377.6v2.4h1.9v1.3h-1.9v6c0,0.6,0.1,0.9,0.3,1.2c0.2,0.2,0.5,0.3,0.8,0.3c0.1,0,0.3,0,0.4,0
      c0.1,0,0.3,0,0.4-0.1l0,1.4c-0.2,0.1-0.4,0.1-0.6,0.1c-0.2,0-0.4,0.1-0.7,0.1c-0.7,0-1.3-0.2-1.7-0.7c-0.4-0.5-0.6-1.2-0.6-2.2
      v-5.9h-1.8V380h1.8v-2.4H541.2z"/>
    <path fill="#757575" d="M544.9,377.4c0-0.3,0.1-0.5,0.3-0.7c0.2-0.2,0.4-0.3,0.8-0.3c0.3,0,0.6,0.1,0.8,0.3
      c0.2,0.2,0.3,0.4,0.3,0.7c0,0.3-0.1,0.5-0.3,0.7c-0.2,0.2-0.4,0.3-0.8,0.3s-0.6-0.1-0.8-0.3C545,377.9,544.9,377.7,544.9,377.4z
       M546.8,390.1h-1.7v-10h1.7V390.1z"/>
    <path fill="#757575" d="M551.1,380l0.1,1.3c0.4-0.5,0.8-0.8,1.3-1.1c0.5-0.3,1.1-0.4,1.7-0.4c1,0,1.8,0.3,2.4,1
      c0.6,0.6,0.8,1.6,0.8,3v6.3h-1.7v-6.3c0-0.8-0.2-1.5-0.5-1.9c-0.3-0.4-0.8-0.6-1.5-0.6c-0.6,0-1,0.1-1.5,0.4
      c-0.4,0.3-0.8,0.7-1,1.2v7.2h-1.7v-10H551.1z"/>
    <path fill="#757575" d="M559.6,385c0-1.6,0.4-2.8,1.1-3.7c0.7-0.9,1.7-1.4,2.9-1.4c0.6,0,1.2,0.1,1.7,0.3c0.5,0.2,0.9,0.6,1.2,1
      l0.1-1.2h1.5v9.8c0,1.3-0.4,2.3-1.2,3.1c-0.8,0.7-1.8,1.1-3.1,1.1c-0.6,0-1.3-0.1-2-0.4s-1.3-0.7-1.7-1.3l0.9-1
      c0.4,0.5,0.8,0.8,1.3,1c0.4,0.2,0.9,0.3,1.4,0.3c0.8,0,1.5-0.2,1.9-0.7c0.5-0.5,0.7-1.1,0.7-2v-0.9c-0.3,0.4-0.8,0.7-1.2,0.9
      s-1,0.3-1.6,0.3c-1.2,0-2.2-0.5-2.9-1.4c-0.7-0.9-1.1-2.2-1.1-3.7V385z M561.3,385.2c0,1.1,0.2,2,0.6,2.6s1.1,1,2,1
      c0.6,0,1.1-0.1,1.4-0.4c0.4-0.3,0.7-0.6,0.9-1.1v-4.6c-0.2-0.5-0.6-0.8-0.9-1.1c-0.4-0.3-0.9-0.4-1.4-0.4c-0.9,0-1.6,0.3-2,1
      c-0.4,0.7-0.7,1.6-0.7,2.6V385.2z"/>
    <path fill="#757575" d="M570.7,389.2c0-0.3,0.1-0.6,0.3-0.7c0.2-0.2,0.4-0.3,0.8-0.3c0.3,0,0.6,0.1,0.8,0.3
      c0.2,0.2,0.3,0.4,0.3,0.7c0,0.3-0.1,0.5-0.3,0.7c-0.2,0.2-0.5,0.3-0.8,0.3c-0.3,0-0.6-0.1-0.8-0.3
      C570.8,389.7,570.7,389.5,570.7,389.2z"/>
    <path fill="#757575" d="M575.7,389.2c0-0.3,0.1-0.6,0.3-0.7c0.2-0.2,0.4-0.3,0.8-0.3c0.3,0,0.6,0.1,0.8,0.3
      c0.2,0.2,0.3,0.4,0.3,0.7c0,0.3-0.1,0.5-0.3,0.7c-0.2,0.2-0.5,0.3-0.8,0.3c-0.3,0-0.6-0.1-0.8-0.3
      C575.8,389.7,575.7,389.5,575.7,389.2z"/>
    <path fill="#757575" d="M580.7,389.2c0-0.3,0.1-0.6,0.3-0.7c0.2-0.2,0.4-0.3,0.8-0.3c0.3,0,0.6,0.1,0.8,0.3
      c0.2,0.2,0.3,0.4,0.3,0.7c0,0.3-0.1,0.5-0.3,0.7c-0.2,0.2-0.5,0.3-0.8,0.3c-0.3,0-0.6-0.1-0.8-0.3
      C580.8,389.7,580.7,389.5,580.7,389.2z"/>
  </g>
</g>
</svg>